# xmcd
#
# Track frame offsets: 
#        150
#        12140
#        25477
#        38752
#        52628
#        67069
#        84050
#        99260
#        113711
#        128962
#        144580
#        157920
#        171811
#        185479
#        199132
#        213057
#        227200
#        242126
#        254796
#        269293
#
# Disc length: 3797 seconds
#
# Revision: 1
# Processed by: cddbd v1.5.2PL0 Copyright (c) Steve Scherf et al.
# Submitted via: ExactAudioCopy v1.3
#
DISCID=0b0ed314
DTITLE=Billie Holiday - The Rough Guide to Jazz and Blues Legends: Bil
DTITLE=lie Holiday [CD1]
DYEAR=2010
DGENRE=Jazz
TTITLE0=I Love My Man
TTITLE1=God Bless The Child
TTITLE2=Summertime
TTITLE3=They Can't Take That Away From Me
TTITLE4=Strange Fruit
TTITLE5=Lady Sings The Blues
TTITLE6=Lover Man
TTITLE7=Gloomy Sunday
TTITLE8=T'Ain't Nobody's Business If I Do
TTITLE9=I Can't Give You Anything But Love
TTITLE10=I Cover The Water Front
TTITLE11=Easy Living
TTITLE12=Foolin' Myself
TTITLE13=I'll Never Be The Same
TTITLE14=Long Gone Blues
TTITLE15=Mean To Me
TTITLE16=No Good Man
TTITLE17=I Can't Get Started
TTITLE18=Guilty
TTITLE19=Stormy Blues
EXTD=
EXTT0=
EXTT1=
EXTT2=
EXTT3=
EXTT4=
EXTT5=
EXTT6=
EXTT7=
EXTT8=
EXTT9=
EXTT10=
EXTT11=
EXTT12=
EXTT13=
EXTT14=
EXTT15=
EXTT16=
EXTT17=
EXTT18=
EXTT19=
PLAYORDER=
